<?xml version="1.0" encoding="utf-8"?>
<!-- Generator: Adobe Illustrator 16.0.0, SVG Export Plug-In . SVG Version: 6.00 Build 0)  -->
<!DOCTYPE svg PUBLIC "-//W3C//DTD SVG 1.1//EN" "http://www.w3.org/Graphics/SVG/1.1/DTD/svg11.dtd">
<svg version="1.1" id="Layer_1" xmlns="http://www.w3.org/2000/svg" xmlns:xlink="http://www.w3.org/1999/xlink" x="0px" y="0px"
	 width="612px" height="168.331px" viewBox="0 0 612 168.331" enable-background="new 0 0 612 168.331" xml:space="preserve">
<g>
	<g>
		<g>
			<path d="M74.13,140.774c-7.811,0-15.086-1.456-21.798-4.376c-6.73-2.92-12.597-6.917-17.599-11.991
				c-5.007-5.069-8.934-10.987-11.798-17.755c-2.87-6.759-4.303-13.932-4.303-21.515c0-7.582,1.433-14.755,4.303-21.521
				c2.865-6.76,6.792-12.678,11.798-17.755c5.002-5.067,10.869-9.065,17.599-11.985c6.711-2.917,13.987-4.382,21.798-4.382
				c7.82,0,15.115,1.464,21.888,4.382c6.775,2.92,12.667,6.918,17.672,11.985c5.004,5.077,8.961,10.996,11.88,17.755
				c2.917,6.766,4.382,13.939,4.382,21.521c0,7.583-1.465,14.756-4.382,21.515c-2.919,6.768-6.876,12.687-11.88,17.755
				c-5.005,5.074-10.897,9.071-17.672,11.991C89.245,139.319,81.951,140.774,74.13,140.774z M74.13,134.936
				c6.886,0,13.311-1.325,19.309-3.996c5.998-2.657,11.184-6.273,15.561-10.837c4.373-4.554,7.818-9.836,10.319-15.826
				c2.504-5.998,3.749-12.381,3.749-19.14c0-6.765-1.245-13.14-3.749-19.137c-2.5-5.996-5.946-11.274-10.319-15.832
				c-4.377-4.56-9.562-8.174-15.561-10.837s-12.423-3.996-19.309-3.996c-6.981,0-13.438,1.333-19.384,3.996
				c-5.937,2.663-11.08,6.277-15.403,10.837C35.02,54.726,31.638,60.004,29.187,66c-2.442,5.998-3.673,12.373-3.673,19.137
				c0,6.759,1.231,13.142,3.673,19.14c2.452,5.99,5.833,11.272,10.157,15.826c4.324,4.564,9.467,8.18,15.403,10.837
				C60.693,133.611,67.149,134.936,74.13,134.936z"/>
			<path fill="#FFFFFF" d="M74.13,144.034c-8.238,0-16.012-1.564-23.099-4.646c-7.081-3.073-13.344-7.344-18.621-12.693
				c-5.263-5.33-9.462-11.646-12.477-18.772c-3.025-7.125-4.561-14.792-4.561-22.787c0-7.993,1.536-15.662,4.561-22.795
				c3.015-7.113,7.214-13.428,12.477-18.77c5.282-5.349,11.547-9.617,18.625-12.686c7.097-3.087,14.868-4.652,23.094-4.652
				c8.222,0,16.019,1.564,23.179,4.647c7.13,3.073,13.421,7.342,18.701,12.689c5.263,5.34,9.485,11.648,12.552,18.752
				c3.088,7.158,4.652,14.833,4.652,22.815c0,7.984-1.566,15.659-4.652,22.807c-3.067,7.115-7.292,13.425-12.552,18.752
				c-5.272,5.349-11.566,9.621-18.701,12.697C90.163,142.474,82.364,144.034,74.13,144.034z M74.13,38.594
				c-6.481,0-12.555,1.249-18.05,3.712c-5.528,2.479-10.366,5.879-14.37,10.105c-4.019,4.235-7.217,9.221-9.504,14.82
				c-2.278,5.586-3.434,11.611-3.434,17.906s1.155,12.321,3.434,17.909c2.29,5.601,5.486,10.584,9.502,14.812
				c4.011,4.233,8.846,7.633,14.372,10.106c5.481,2.464,11.555,3.712,18.05,3.712c6.402,0,12.452-1.25,17.982-3.714
				c5.578-2.469,10.465-5.872,14.535-10.116c4.077-4.243,7.327-9.23,9.667-14.826c2.317-5.563,3.494-11.58,3.494-17.883
				c0-6.302-1.177-12.319-3.497-17.883c-2.332-5.589-5.583-10.579-9.664-14.828c-4.067-4.237-8.957-7.641-14.532-10.115
				C86.568,39.845,80.513,38.594,74.13,38.594z"/>
		</g>
	</g>
	<g>
		<g>
			<path fill="#FFFFFF" d="M191.74,72.996h-10.328c-4.495,0-8.609,0.726-12.357,2.176c-3.744,1.449-6.965,3.521-9.657,6.217
				c-2.706,2.699-4.791,5.897-6.296,9.588c-1.496,3.698-2.248,7.791-2.248,12.292c0,4.495,0.751,8.59,2.248,12.287
				c1.505,3.697,3.59,6.891,6.296,9.589c2.691,2.697,5.913,4.777,9.657,6.219c3.748,1.449,7.862,2.174,12.357,2.174h10.328v5.996
				h-10.629c-5.189,0-9.983-0.873-14.375-2.627c-4.398-1.741-8.212-4.217-11.465-7.419c-3.241-3.193-5.787-7.013-7.634-11.461
				c-1.849-4.443-2.771-9.361-2.771-14.756c0-5.393,0.923-10.319,2.771-14.761c1.848-4.441,4.394-8.27,7.634-11.463
				c3.253-3.202,7.067-5.67,11.465-7.419c4.392-1.745,9.185-2.621,14.375-2.621h10.629V72.996z"/>
			<path fill="#FFFFFF" d="M195.002,142.794h-13.891c-5.589,0-10.831-0.961-15.584-2.859c-4.758-1.884-8.98-4.618-12.543-8.125
				c-3.537-3.484-6.35-7.701-8.358-12.533c-2.005-4.821-3.02-10.208-3.02-16.008c0-5.804,1.015-11.193,3.02-16.013
				c2.015-4.837,4.829-9.053,8.358-12.533c3.548-3.492,7.769-6.227,12.548-8.127c4.763-1.892,10.004-2.851,15.579-2.851h13.891
				v12.51h-13.59c-4.063,0-7.825,0.659-11.183,1.956c-3.304,1.28-6.174,3.124-8.525,5.48c-2.363,2.362-4.241,5.226-5.585,8.518
				c-1.329,3.284-2.005,7.008-2.005,11.06c0,4.05,0.676,7.772,2.01,11.064c1.353,3.328,3.18,6.112,5.575,8.502
				c2.365,2.371,5.232,4.216,8.527,5.485c3.356,1.3,7.118,1.957,11.186,1.957h13.59V142.794z"/>
		</g>
		<g>
			<path fill="#FFFFFF" d="M212.115,67.004h25.168v6.331h-25.168v46.428c0,4.492,1.249,8.014,3.744,10.554
				c2.499,2.549,5.847,3.82,10.042,3.82h11.383v5.396h-10.188c-6.796,0-11.93-1.821-15.429-5.468
				c-3.492-3.643-5.239-8.612-5.239-14.902V49.062h5.688V67.004z"/>
			<path fill="#FFFFFF" d="M240.545,142.794h-13.45c-7.677,0-13.661-2.178-17.78-6.472c-4.079-4.251-6.148-10.025-6.148-17.159
				v-73.36h12.207v17.942h25.171v12.85h-25.171v43.168c0,3.64,0.918,6.344,2.809,8.269c1.879,1.916,4.401,2.846,7.717,2.846h14.645
				V142.794z"/>
		</g>
		<g>
			<path fill="#FFFFFF" d="M281.633,102.71l29.123-19.8c-2.553-3.233-5.756-5.809-9.631-7.722
				c-3.867-1.906-8.151-2.859-12.855-2.859c-4.416,0-8.48,0.855-12.203,2.566c-3.722,1.716-6.928,4.023-9.624,6.91
				c-2.694,2.886-4.772,6.243-6.247,10.066c-1.461,3.821-2.203,7.793-2.203,11.908c0,4.117,0.756,8.034,2.278,11.756
				c1.52,3.724,3.621,6.975,6.322,9.77c2.693,2.792,5.897,5,9.624,6.612c3.717,1.62,7.743,2.43,12.052,2.43
				c4.204,0,8.154-0.785,11.827-2.351c3.683-1.565,6.881-3.723,9.619-6.468c2.753-2.743,4.931-5.878,6.552-9.405
				c1.621-3.525,2.475-7.302,2.574-11.318h5.879c-0.102,4.604-1.086,9.014-2.949,13.228c-1.857,4.212-4.359,7.917-7.49,11.097
				c-3.133,3.188-6.832,5.728-11.094,7.642c-4.265,1.914-8.84,2.868-13.744,2.868c-5.483,0-10.509-0.933-15.06-2.796
				c-4.558-1.858-8.48-4.411-11.758-7.641c-3.283-3.234-5.857-7.054-7.722-11.465c-1.86-4.41-2.786-9.157-2.786-14.251
				c0-4.9,0.88-9.558,2.645-13.967c1.764-4.407,4.236-8.275,7.418-11.606c3.187-3.33,6.987-5.976,11.393-7.936
				c4.403-1.959,9.304-2.941,14.696-2.941c6.758,0,12.83,1.57,18.224,4.703c5.383,3.138,9.645,7.251,12.779,12.349l-34.113,23.324
				L281.633,102.71z"/>
			<path fill="#FFFFFF" d="M289.444,142.897c-5.89,0-11.371-1.022-16.297-3.039c-4.923-2.007-9.234-4.812-12.809-8.336
				c-3.577-3.521-6.416-7.732-8.436-12.519c-2.02-4.781-3.043-10.001-3.043-15.519c0-5.296,0.967-10.403,2.879-15.178
				c1.907-4.775,4.631-9.031,8.088-12.647c3.467-3.623,7.646-6.537,12.423-8.663c4.805-2.138,10.197-3.222,16.021-3.222
				c7.303,0,13.987,1.731,19.863,5.142c5.838,3.404,10.52,7.933,13.918,13.461l1.627,2.646l-39.254,26.839l-7.447-9.931
				l28.836-19.602c-1.78-1.672-3.833-3.084-6.129-4.22c-3.396-1.672-7.238-2.522-11.413-2.522c-3.92,0-7.567,0.763-10.838,2.269
				c-3.309,1.524-6.205,3.603-8.609,6.173c-2.384,2.559-4.268,5.594-5.587,9.015c-1.313,3.439-1.982,7.055-1.982,10.734
				c0,3.674,0.686,7.216,2.037,10.523c1.355,3.319,3.254,6.261,5.647,8.738c2.394,2.478,5.277,4.458,8.574,5.884
				c6.503,2.834,14.713,2.882,21.308,0.072c3.264-1.388,6.153-3.331,8.591-5.773c2.456-2.449,4.438-5.295,5.896-8.463
				c1.42-3.093,2.186-6.47,2.275-10.038l0.08-3.179h12.391l-0.074,3.332c-0.109,5.008-1.193,9.877-3.223,14.472
				c-2.01,4.556-4.754,8.616-8.152,12.067c-3.383,3.446-7.449,6.248-12.078,8.329C299.862,141.836,294.789,142.897,289.444,142.897z
				"/>
		</g>
		<g>
			<path fill="#FFFFFF" d="M390.822,139.588V97.045c0-3.69-0.602-7.061-1.799-10.111c-1.193-3.043-2.852-5.639-4.941-7.789
				c-2.1-2.146-4.525-3.792-7.268-4.943c-2.752-1.149-5.672-1.724-8.77-1.724c-3.092,0-6.01,0.575-8.762,1.724
				c-2.744,1.151-5.16,2.797-7.266,4.943c-2.09,2.15-3.738,4.746-4.934,7.789c-1.201,3.05-1.803,6.42-1.803,10.111v42.542h-5.684
				V96.293c0-4.392,0.738-8.385,2.244-11.979c1.49-3.598,3.514-6.669,6.064-9.215c2.551-2.541,5.537-4.512,8.984-5.912
				c3.453-1.397,7.158-2.104,11.154-2.104c4.004,0,7.713,0.706,11.166,2.104c3.443,1.399,6.441,3.371,8.984,5.912
				c2.541,2.546,4.572,5.618,6.074,9.215c1.488,3.594,2.244,7.588,2.244,11.979v43.295H390.822z"/>
			<path fill="#FFFFFF" d="M399.773,142.847h-12.211V97.045c0-3.261-0.531-6.261-1.58-8.92c-1.016-2.604-2.441-4.859-4.24-6.706
				c-1.766-1.811-3.852-3.229-6.189-4.211c-4.664-1.948-10.336-1.953-15.01,0.002c-2.355,0.987-4.385,2.367-6.195,4.217
				c-1.777,1.827-3.201,4.083-4.23,6.699c-1.047,2.657-1.576,5.655-1.576,8.919v45.802h-12.205V96.293
				c0-4.821,0.844-9.276,2.498-13.238c1.641-3.959,3.92-7.416,6.766-10.263c2.857-2.848,6.244-5.075,10.07-6.625
				c7.672-3.109,17.092-3.105,24.764-0.001c3.842,1.562,7.229,3.792,10.064,6.626c2.848,2.854,5.129,6.308,6.779,10.268
				c1.66,4.006,2.496,8.456,2.496,13.233V142.847z"/>
		</g>
		<g>
			<path fill="#FFFFFF" d="M406.311,44.15c0-2.351,0.771-4.304,2.316-5.852c1.541-1.535,3.492-2.312,5.854-2.312
				c2.357,0,4.307,0.777,5.852,2.312c1.535,1.548,2.311,3.5,2.311,5.852c0,2.365-0.775,4.32-2.311,5.854
				c-1.545,1.546-3.494,2.311-5.852,2.311c-2.361,0-4.312-0.765-5.854-2.311C407.082,48.47,406.311,46.515,406.311,44.15z
				 M411.408,139.533l-0.133-72.497h5.693l0.137,72.497H411.408z"/>
			<path fill="#FFFFFF" d="M420.369,142.794h-12.217l-0.141-79.018h12.213L420.369,142.794z M414.48,55.575
				c-3.26,0-6.006-1.101-8.164-3.272c-2.164-2.146-3.268-4.894-3.268-8.152c0-3.238,1.102-5.982,3.271-8.157
				c2.145-2.138,4.965-3.267,8.16-3.267c3.232,0,5.973,1.097,8.148,3.26c2.178,2.19,3.273,4.931,3.273,8.164
				c0,3.253-1.104,5.999-3.27,8.161C420.477,54.475,417.729,55.575,414.48,55.575z M414.48,39.246c-1.492,0-2.621,0.432-3.551,1.359
				c-0.926,0.928-1.359,2.055-1.359,3.544c0,1.499,0.428,2.623,1.354,3.54c0.93,0.936,2.057,1.364,3.557,1.364
				c1.494,0,2.619-0.43,3.541-1.353c0.93-0.927,1.361-2.053,1.361-3.552c0-1.489-0.434-2.619-1.361-3.555
				C417.096,39.679,415.969,39.246,414.48,39.246z"/>
		</g>
		<g>
			<path fill="#FFFFFF" d="M437.496,67.036v43.111c0,3.612,0.586,6.916,1.764,9.896c1.17,2.978,2.781,5.525,4.83,7.623
				c2.051,2.104,4.426,3.714,7.117,4.838c2.682,1.126,5.545,1.688,8.574,1.688c3.031,0,5.891-0.562,8.58-1.688
				c2.688-1.124,5.057-2.733,7.107-4.838c2.057-2.097,3.67-4.645,4.842-7.623c1.166-2.98,1.754-6.285,1.754-9.896V67.036h5.582
				v43.842c0,4.306-0.74,8.212-2.211,11.73c-1.461,3.522-3.443,6.526-5.928,9.016c-2.5,2.497-5.43,4.427-8.807,5.793
				c-3.373,1.371-7.014,2.05-10.92,2.05c-3.908,0-7.551-0.679-10.922-2.05c-3.371-1.367-6.309-3.297-8.799-5.793
				c-2.496-2.49-4.471-5.493-5.939-9.016c-1.465-3.518-2.199-7.424-2.199-11.73V67.036H437.496z"/>
			<path fill="#FFFFFF" d="M459.781,142.729c-4.324,0-8.412-0.771-12.148-2.292c-3.77-1.527-7.098-3.717-9.879-6.509
				c-2.777-2.771-5.014-6.159-6.643-10.064c-1.625-3.9-2.449-8.269-2.449-12.984V63.776h12.094v46.371c0,3.2,0.52,6.126,1.533,8.697
				c1.016,2.577,2.406,4.776,4.133,6.544c1.73,1.776,3.762,3.156,6.041,4.106c4.541,1.908,10.09,1.908,14.641,0.004
				c2.273-0.95,4.299-2.332,6.029-4.108c1.744-1.776,3.133-3.976,4.143-6.541c1.016-2.589,1.529-5.52,1.529-8.703V63.776h12.102
				v47.102c0,4.708-0.832,9.078-2.465,12.989c-1.605,3.88-3.838,7.269-6.625,10.061c-2.805,2.803-6.135,4.991-9.895,6.513
				C468.188,141.957,464.102,142.729,459.781,142.729z"/>
		</g>
		<g>
			<path fill="#FFFFFF" d="M545.133,139.533V92.499c0-3.389-0.518-6.342-1.576-8.838c-1.045-2.496-2.439-4.566-4.188-6.22
				c-1.756-1.645-3.725-2.892-5.928-3.74c-2.193-0.849-4.438-1.276-6.736-1.276c-2.291,0-4.535,0.427-6.734,1.276
				c-2.197,0.848-4.17,2.095-5.92,3.74c-1.744,1.654-3.135,3.725-4.195,6.22c-1.047,2.496-1.57,5.449-1.57,8.838v47.034h-5.691
				V92.499c0-4.097,0.623-7.742,1.871-10.933c1.252-3.194,2.971-5.867,5.164-8.015c2.197-2.145,4.771-3.769,7.721-4.867
				c2.943-1.096,6.062-1.647,9.355-1.647c5.693,0,10.273,1.198,13.717,3.597c3.436,2.396,5.908,5.838,7.408,10.331h0.299
				c1.504-4.493,3.969-7.935,7.414-10.331c3.441-2.399,8.016-3.597,13.711-3.597c3.291,0,6.412,0.552,9.35,1.647
				c2.953,1.098,5.521,2.722,7.723,4.867c2.195,2.148,3.92,4.821,5.168,8.015c1.24,3.191,1.875,6.836,1.875,10.933v47.034h-5.701
				V92.499c0-3.389-0.514-6.342-1.561-8.838c-1.057-2.496-2.459-4.566-4.201-6.22c-1.744-1.645-3.719-2.892-5.912-3.74
				c-2.197-0.849-4.451-1.276-6.74-1.276c-2.301,0-4.572,0.427-6.818,1.276c-2.244,0.848-4.223,2.095-5.916,3.74
				c-1.699,1.654-3.068,3.725-4.117,6.22c-1.051,2.496-1.572,5.449-1.572,8.838v47.034H545.133z"/>
			<path fill="#FFFFFF" d="M596.629,142.794h-12.221V92.499c0-2.958-0.439-5.508-1.307-7.579c-0.869-2.051-2.029-3.776-3.439-5.116
				c-1.418-1.336-3.049-2.37-4.842-3.062c-3.645-1.408-7.506-1.401-11.234,0.008c-1.822,0.688-3.434,1.708-4.793,3.028
				c-1.377,1.338-2.516,3.071-3.387,5.143c-0.875,2.081-1.32,4.63-1.32,7.577v50.295h-12.215V92.499
				c0-2.958-0.445-5.504-1.318-7.568c-0.879-2.102-2-3.773-3.424-5.122c-1.457-1.362-3.047-2.368-4.857-3.066
				c-3.631-1.406-7.5-1.404-11.121-0.001c-1.822,0.7-3.41,1.705-4.867,3.074c-1.408,1.335-2.533,3.012-3.424,5.116
				c-0.867,2.071-1.312,4.621-1.312,7.567v50.295h-12.213V92.499c0-4.484,0.703-8.562,2.094-12.12
				c1.416-3.614,3.404-6.695,5.92-9.157c2.52-2.461,5.504-4.342,8.865-5.594c3.301-1.229,6.834-1.852,10.492-1.852
				c6.355,0,11.598,1.407,15.58,4.182c2.25,1.568,4.152,3.526,5.693,5.853c1.543-2.329,3.447-4.288,5.701-5.855
				c3.984-2.772,9.223-4.179,15.574-4.179c3.666,0,7.191,0.624,10.49,1.852c3.354,1.247,6.332,3.128,8.857,5.588
				c2.527,2.47,4.518,5.551,5.928,9.163c1.395,3.577,2.1,7.654,2.1,12.12V142.794z M547.232,84.223
				c0.314,0.995,0.562,2.043,0.748,3.14c0.186-1.096,0.436-2.144,0.75-3.14H547.232z"/>
		</g>
	</g>
	<g>
		<path fill="#F26426" d="M94.825,85.137c0,11.341-9.192,20.53-20.537,20.53c-11.341,0-20.53-9.189-20.53-20.53
			c0-11.338,9.189-20.535,20.53-20.535C85.633,64.602,94.825,73.799,94.825,85.137z"/>
		<path fill="#F06426" d="M74.288,108.928c-13.116,0-23.79-10.674-23.79-23.791c0-13.121,10.674-23.794,23.79-23.794
			c13.121,0,23.796,10.673,23.796,23.794C98.084,98.254,87.409,108.928,74.288,108.928z M74.288,67.862
			c-9.523,0-17.268,7.75-17.268,17.275c0,9.523,7.745,17.271,17.268,17.271c9.527,0,17.277-7.748,17.277-17.271
			C91.565,75.611,83.815,67.862,74.288,67.862z"/>
	</g>
</g>
</svg>
